<svg width="400" height="400" viewBox="0 0 400 400" fill="none" xmlns="http://www.w3.org/2000/svg">
  <rect width="400" height="400" fill="#F3F4F6"/>
  <path d="M200 150C177.909 150 160 167.909 160 190C160 212.091 177.909 230 200 230C222.091 230 240 212.091 240 190C240 167.909 222.091 150 200 150ZM200 220C183.458 220 170 206.542 170 190C170 173.458 183.458 160 200 160C216.542 160 230 173.458 230 190C230 206.542 216.542 220 200 220Z" fill="#9CA3AF"/>
  <path d="M280 140H120C118.895 140 118 140.895 118 142V238C118 239.105 118.895 240 120 240H280C281.105 240 282 239.105 282 238V142C282 140.895 281.105 140 280 140ZM270 230H130V150H270V230Z" fill="#9CA3AF"/>
  <path d="M200 180C188.954 180 180 188.954 180 200C180 211.046 188.954 220 200 220C211.046 220 220 211.046 220 200C220 188.954 211.046 180 200 180Z" fill="#D1D5DB"/>
</svg>
